<mxfile host="65bd71144e">
    <diagram id="F0GllWPKh_XA4dY3KKtw" name="Page-1">
        <mxGraphModel dx="1068" dy="917" grid="1" gridSize="10" guides="1" tooltips="1" connect="1" arrows="1" fold="1" page="1" pageScale="1" pageWidth="850" pageHeight="1100" background="#949494" math="0" shadow="0">
            <root>
                <mxCell id="0"/>
                <mxCell id="1" parent="0"/>
                <mxCell id="54" style="edgeStyle=none;html=1;exitX=0.5;exitY=0;exitDx=0;exitDy=0;fontSize=15;" parent="1" source="2" target="14" edge="1">
                    <mxGeometry relative="1" as="geometry"/>
                </mxCell>
                <mxCell id="2" value="&lt;div style=&quot;font-family: &amp;#34;consolas&amp;#34; , &amp;#34;courier new&amp;#34; , monospace ; line-height: 19px&quot;&gt;&lt;div&gt;&lt;b&gt;&lt;font style=&quot;font-size: 15px&quot; color=&quot;#000000&quot;&gt;DATABASE&lt;/font&gt;&lt;/b&gt;&lt;/div&gt;&lt;div style=&quot;font-size: 13px&quot;&gt;&lt;font color=&quot;#000000&quot;&gt;BASE_DIR 'db.sqlite3'&lt;/font&gt;&lt;/div&gt;&lt;/div&gt;" style="shape=datastore;whiteSpace=wrap;html=1;" parent="1" vertex="1">
                    <mxGeometry x="320" y="870" width="130" height="130" as="geometry"/>
                </mxCell>
                <mxCell id="9" value="&lt;b&gt;Job App&lt;br&gt;&lt;br&gt;&lt;/b&gt;&lt;span&gt;-Job Title&lt;br&gt;-Job Description&lt;br&gt;-Position Title&lt;br&gt;-Skills /Proficiencies&lt;br&gt;-State&lt;br&gt;-City&lt;br&gt;-shift&lt;br&gt;-hours&lt;br&gt;-remote&lt;br&gt;-availability&lt;br&gt;-created-date&lt;br&gt;-user name&lt;br&gt;&lt;/span&gt;" style="rounded=0;whiteSpace=wrap;html=1;rotation=0;" parent="1" vertex="1">
                    <mxGeometry x="78.5" y="670" width="150" height="230" as="geometry"/>
                </mxCell>
                <mxCell id="134" value="" style="edgeStyle=none;html=1;" edge="1" parent="1" source="13" target="88">
                    <mxGeometry relative="1" as="geometry"/>
                </mxCell>
                <mxCell id="13" value="-direct message&lt;br&gt;-email" style="rounded=0;whiteSpace=wrap;html=1;rotation=0;" parent="1" vertex="1">
                    <mxGeometry x="683.5" y="327.5" width="120" height="42.5" as="geometry"/>
                </mxCell>
                <mxCell id="52" style="edgeStyle=none;html=1;exitX=0;exitY=0.5;exitDx=0;exitDy=0;entryX=1;entryY=0.5;entryDx=0;entryDy=0;fontSize=15;" parent="1" source="14" target="9" edge="1">
                    <mxGeometry relative="1" as="geometry"/>
                </mxCell>
                <mxCell id="55" style="edgeStyle=none;html=1;exitX=0.25;exitY=0;exitDx=0;exitDy=0;entryX=0.5;entryY=1;entryDx=0;entryDy=0;fontSize=15;" parent="1" source="14" target="15" edge="1">
                    <mxGeometry relative="1" as="geometry"/>
                </mxCell>
                <mxCell id="56" style="edgeStyle=none;html=1;exitX=1;exitY=0;exitDx=0;exitDy=0;entryX=0.25;entryY=1;entryDx=0;entryDy=0;fontSize=15;" parent="1" source="14" target="16" edge="1">
                    <mxGeometry relative="1" as="geometry"/>
                </mxCell>
                <mxCell id="128" style="edgeStyle=none;html=1;exitX=0.25;exitY=1;exitDx=0;exitDy=0;entryX=1;entryY=0.5;entryDx=0;entryDy=0;" edge="1" parent="1" source="14" target="127">
                    <mxGeometry relative="1" as="geometry"/>
                </mxCell>
                <mxCell id="129" style="edgeStyle=none;html=1;exitX=0;exitY=0;exitDx=0;exitDy=0;entryX=1;entryY=0.5;entryDx=0;entryDy=0;" edge="1" parent="1" source="14" target="22">
                    <mxGeometry relative="1" as="geometry"/>
                </mxCell>
                <mxCell id="14" value="&lt;b&gt;&lt;font style=&quot;font-size: 16px&quot;&gt;MODELS&lt;/font&gt;&lt;/b&gt;" style="shape=process;whiteSpace=wrap;html=1;backgroundOutline=1;labelBackgroundColor=none;fontSize=13;" parent="1" vertex="1">
                    <mxGeometry x="325" y="730" width="120" height="50" as="geometry"/>
                </mxCell>
                <mxCell id="57" style="edgeStyle=none;html=1;exitX=0;exitY=0.5;exitDx=0;exitDy=0;fontSize=15;" parent="1" source="15" target="18" edge="1">
                    <mxGeometry relative="1" as="geometry"/>
                </mxCell>
                <mxCell id="70" style="edgeStyle=none;html=1;exitX=0.5;exitY=0;exitDx=0;exitDy=0;entryX=0.25;entryY=1;entryDx=0;entryDy=0;fontSize=15;" parent="1" source="15" target="17" edge="1">
                    <mxGeometry relative="1" as="geometry"/>
                </mxCell>
                <mxCell id="15" value="&lt;b&gt;&lt;font style=&quot;font-size: 15px&quot;&gt;APP&lt;/font&gt;&lt;/b&gt;" style="shape=process;whiteSpace=wrap;html=1;backgroundOutline=1;labelBackgroundColor=none;fontSize=13;" parent="1" vertex="1">
                    <mxGeometry x="210" y="495" width="90" height="60" as="geometry"/>
                </mxCell>
                <mxCell id="58" style="edgeStyle=none;html=1;exitX=1;exitY=0;exitDx=0;exitDy=0;entryX=0;entryY=0.5;entryDx=0;entryDy=0;fontSize=15;" parent="1" source="16" target="21" edge="1">
                    <mxGeometry relative="1" as="geometry"/>
                </mxCell>
                <mxCell id="59" style="edgeStyle=none;html=1;exitX=1;exitY=0.25;exitDx=0;exitDy=0;entryX=0;entryY=0.5;entryDx=0;entryDy=0;fontSize=15;" parent="1" source="16" target="25" edge="1">
                    <mxGeometry relative="1" as="geometry"/>
                </mxCell>
                <mxCell id="60" style="edgeStyle=none;html=1;exitX=1;exitY=0.5;exitDx=0;exitDy=0;entryX=0;entryY=0.5;entryDx=0;entryDy=0;fontSize=15;" parent="1" source="16" target="26" edge="1">
                    <mxGeometry relative="1" as="geometry"/>
                </mxCell>
                <mxCell id="61" style="edgeStyle=none;html=1;exitX=1;exitY=0.75;exitDx=0;exitDy=0;entryX=0;entryY=0.5;entryDx=0;entryDy=0;fontSize=15;" parent="1" source="16" target="27" edge="1">
                    <mxGeometry relative="1" as="geometry"/>
                </mxCell>
                <mxCell id="62" style="edgeStyle=none;html=1;exitX=1;exitY=1;exitDx=0;exitDy=0;entryX=0;entryY=0.5;entryDx=0;entryDy=0;fontSize=15;" parent="1" source="16" target="28" edge="1">
                    <mxGeometry relative="1" as="geometry"/>
                </mxCell>
                <mxCell id="63" style="edgeStyle=none;html=1;exitX=0.75;exitY=1;exitDx=0;exitDy=0;entryX=0;entryY=0.5;entryDx=0;entryDy=0;fontSize=15;" parent="1" source="16" target="29" edge="1">
                    <mxGeometry relative="1" as="geometry"/>
                </mxCell>
                <mxCell id="64" style="edgeStyle=none;html=1;exitX=0.5;exitY=1;exitDx=0;exitDy=0;entryX=0;entryY=0.5;entryDx=0;entryDy=0;fontSize=15;" parent="1" source="16" target="30" edge="1">
                    <mxGeometry relative="1" as="geometry"/>
                </mxCell>
                <mxCell id="71" style="edgeStyle=none;html=1;exitX=0.5;exitY=0;exitDx=0;exitDy=0;entryX=0.75;entryY=1;entryDx=0;entryDy=0;fontSize=15;" parent="1" source="16" target="17" edge="1">
                    <mxGeometry relative="1" as="geometry"/>
                </mxCell>
                <mxCell id="16" value="&lt;b&gt;&lt;font style=&quot;font-size: 15px&quot;&gt;VIEWS&lt;/font&gt;&lt;/b&gt;" style="shape=process;whiteSpace=wrap;html=1;backgroundOutline=1;labelBackgroundColor=none;fontSize=13;" parent="1" vertex="1">
                    <mxGeometry x="420" y="550" width="120" height="50" as="geometry"/>
                </mxCell>
                <mxCell id="94" style="edgeStyle=none;html=1;fontSize=15;exitX=0;exitY=0.5;exitDx=0;exitDy=0;" parent="1" edge="1" source="17">
                    <mxGeometry relative="1" as="geometry">
                        <mxPoint x="313.5" y="385" as="sourcePoint"/>
                        <mxPoint x="148.5" y="370" as="targetPoint"/>
                        <Array as="points"/>
                    </mxGeometry>
                </mxCell>
                <mxCell id="17" value="&lt;b&gt;&lt;font style=&quot;font-size: 15px&quot;&gt;TEMPLATE&lt;/font&gt;&lt;/b&gt;" style="shape=process;whiteSpace=wrap;html=1;backgroundOutline=1;labelBackgroundColor=none;fontSize=13;" parent="1" vertex="1">
                    <mxGeometry x="328.5" y="405" width="172.5" height="55" as="geometry"/>
                </mxCell>
                <mxCell id="18" value="&lt;b&gt;Job App&lt;/b&gt;" style="rounded=0;whiteSpace=wrap;html=1;rotation=0;" parent="1" vertex="1">
                    <mxGeometry x="50" y="500" width="90" height="50" as="geometry"/>
                </mxCell>
                <mxCell id="21" value="Home" style="rounded=1;whiteSpace=wrap;html=1;labelBackgroundColor=none;fontSize=13;" parent="1" vertex="1">
                    <mxGeometry x="670" y="525" width="100" height="50" as="geometry"/>
                </mxCell>
                <mxCell id="44" style="edgeStyle=none;html=1;exitX=0.5;exitY=1;exitDx=0;exitDy=0;fontSize=15;" parent="1" source="22" target="9" edge="1">
                    <mxGeometry relative="1" as="geometry"/>
                </mxCell>
                <mxCell id="22" value="&lt;b&gt;User&lt;br&gt;&lt;br&gt;&lt;/b&gt;&lt;span&gt;-picture&lt;br&gt;-user name&lt;br&gt;&lt;/span&gt;" style="rounded=0;whiteSpace=wrap;html=1;rotation=0;" parent="1" vertex="1">
                    <mxGeometry x="110" y="560" width="90" height="90" as="geometry"/>
                </mxCell>
                <mxCell id="25" value="Create Job" style="rounded=1;whiteSpace=wrap;html=1;labelBackgroundColor=none;fontSize=13;" parent="1" vertex="1">
                    <mxGeometry x="670" y="590" width="100" height="50" as="geometry"/>
                </mxCell>
                <mxCell id="26" value="Detail - ID" style="rounded=1;whiteSpace=wrap;html=1;labelBackgroundColor=none;fontSize=13;" parent="1" vertex="1">
                    <mxGeometry x="670" y="660" width="100" height="50" as="geometry"/>
                </mxCell>
                <mxCell id="27" value="Update" style="rounded=1;whiteSpace=wrap;html=1;labelBackgroundColor=none;fontSize=13;" parent="1" vertex="1">
                    <mxGeometry x="670" y="730" width="100" height="50" as="geometry"/>
                </mxCell>
                <mxCell id="28" value="Delete" style="rounded=1;whiteSpace=wrap;html=1;labelBackgroundColor=none;fontSize=13;" parent="1" vertex="1">
                    <mxGeometry x="670" y="800" width="100" height="50" as="geometry"/>
                </mxCell>
                <mxCell id="29" value="Contact" style="rounded=1;whiteSpace=wrap;html=1;labelBackgroundColor=none;fontSize=13;" parent="1" vertex="1">
                    <mxGeometry x="670" y="870" width="100" height="50" as="geometry"/>
                </mxCell>
                <mxCell id="30" value="Follow" style="rounded=1;whiteSpace=wrap;html=1;labelBackgroundColor=none;fontSize=13;" parent="1" vertex="1">
                    <mxGeometry x="670" y="940" width="100" height="50" as="geometry"/>
                </mxCell>
                <mxCell id="31" value="&lt;b&gt;&lt;font style=&quot;font-size: 15px&quot;&gt;STATIC&lt;/font&gt;&lt;/b&gt;" style="shape=process;whiteSpace=wrap;html=1;backgroundOutline=1;labelBackgroundColor=none;fontSize=13;" parent="1" vertex="1">
                    <mxGeometry x="43.5" y="347.5" width="105" height="45" as="geometry"/>
                </mxCell>
                <mxCell id="105" style="edgeStyle=none;html=1;exitX=0.5;exitY=1;exitDx=0;exitDy=0;entryX=0;entryY=0.5;entryDx=0;entryDy=0;fontSize=15;" parent="1" source="35" target="131" edge="1">
                    <mxGeometry relative="1" as="geometry">
                        <mxPoint x="493.5" y="100" as="targetPoint"/>
                    </mxGeometry>
                </mxCell>
                <mxCell id="35" value="&lt;span style=&quot;font-size: 12px&quot;&gt;Job Form&lt;/span&gt;" style="shape=parallelogram;perimeter=parallelogramPerimeter;whiteSpace=wrap;html=1;fixedSize=1;labelBackgroundColor=none;fontSize=15;size=20;" parent="1" vertex="1">
                    <mxGeometry x="333.5" y="40" width="120" height="50" as="geometry"/>
                </mxCell>
                <mxCell id="110" style="edgeStyle=none;html=1;exitX=0.5;exitY=1;exitDx=0;exitDy=0;entryX=0.5;entryY=0;entryDx=0;entryDy=0;fontSize=15;" parent="1" source="38" target="39" edge="1">
                    <mxGeometry relative="1" as="geometry"/>
                </mxCell>
                <mxCell id="38" value="&lt;span style=&quot;font-size: 12px&quot;&gt;Search / Filter Form&lt;/span&gt;" style="shape=parallelogram;perimeter=parallelogramPerimeter;whiteSpace=wrap;html=1;fixedSize=1;labelBackgroundColor=none;fontSize=15;size=20;" parent="1" vertex="1">
                    <mxGeometry x="588.5" y="55" width="150" height="50" as="geometry"/>
                </mxCell>
                <mxCell id="123" style="edgeStyle=none;html=1;exitX=0.5;exitY=1;exitDx=0;exitDy=0;entryX=1;entryY=0;entryDx=0;entryDy=0;fontSize=15;" parent="1" source="39" target="85" edge="1">
                    <mxGeometry relative="1" as="geometry"/>
                </mxCell>
                <mxCell id="39" value="&lt;span&gt;-Job Title&lt;br&gt;- keyword&lt;br&gt;-Location&lt;br&gt;-filter ( remote )&lt;br&gt;-filter ( date posted )&lt;br&gt;&lt;/span&gt;" style="rounded=0;whiteSpace=wrap;html=1;rotation=0;" parent="1" vertex="1">
                    <mxGeometry x="563.5" y="125" width="200" height="80" as="geometry"/>
                </mxCell>
                <mxCell id="107" style="edgeStyle=none;html=1;exitX=0.5;exitY=1;exitDx=0;exitDy=0;entryX=0.5;entryY=0;entryDx=0;entryDy=0;fontSize=15;" parent="1" source="40" target="13" edge="1">
                    <mxGeometry relative="1" as="geometry"/>
                </mxCell>
                <mxCell id="40" value="&lt;span style=&quot;font-size: 12px&quot;&gt;Message Form&lt;/span&gt;" style="shape=parallelogram;perimeter=parallelogramPerimeter;whiteSpace=wrap;html=1;fixedSize=1;labelBackgroundColor=none;fontSize=15;size=20;" parent="1" vertex="1">
                    <mxGeometry x="673.5" y="250" width="140" height="35" as="geometry"/>
                </mxCell>
                <mxCell id="69" value="" style="endArrow=none;dashed=1;html=1;fontSize=15;" parent="1" edge="1">
                    <mxGeometry width="50" height="50" relative="1" as="geometry">
                        <mxPoint y="480" as="sourcePoint"/>
                        <mxPoint x="850" y="480" as="targetPoint"/>
                    </mxGeometry>
                </mxCell>
                <mxCell id="98" style="edgeStyle=none;html=1;exitX=0.5;exitY=0;exitDx=0;exitDy=0;entryX=0.75;entryY=1;entryDx=0;entryDy=0;fontSize=15;" parent="1" source="72" target="31" edge="1">
                    <mxGeometry relative="1" as="geometry"/>
                </mxCell>
                <mxCell id="72" value="css" style="rounded=1;whiteSpace=wrap;html=1;labelBackgroundColor=none;fontSize=15;" parent="1" vertex="1">
                    <mxGeometry x="138.5" y="427.5" width="50" height="20" as="geometry"/>
                </mxCell>
                <mxCell id="97" style="edgeStyle=none;html=1;exitX=0.5;exitY=0;exitDx=0;exitDy=0;fontSize=15;entryX=0.25;entryY=1;entryDx=0;entryDy=0;" parent="1" source="73" target="31" edge="1">
                    <mxGeometry relative="1" as="geometry">
                        <mxPoint x="93.5" y="407.5" as="targetPoint"/>
                    </mxGeometry>
                </mxCell>
                <mxCell id="73" value="images" style="rounded=1;whiteSpace=wrap;html=1;labelBackgroundColor=none;fontSize=15;" parent="1" vertex="1">
                    <mxGeometry x="36" y="422.5" width="75" height="30" as="geometry"/>
                </mxCell>
                <mxCell id="118" style="edgeStyle=none;html=1;exitX=0;exitY=0.5;exitDx=0;exitDy=0;entryX=1;entryY=0.5;entryDx=0;entryDy=0;fontSize=15;" parent="1" source="84" target="17" edge="1">
                    <mxGeometry relative="1" as="geometry"/>
                </mxCell>
                <mxCell id="133" style="edgeStyle=none;html=1;" edge="1" parent="1" source="84" target="85">
                    <mxGeometry relative="1" as="geometry"/>
                </mxCell>
                <mxCell id="84" value="base.html" style="rounded=0;whiteSpace=wrap;html=1;labelBackgroundColor=none;fontSize=15;" parent="1" vertex="1">
                    <mxGeometry x="518.5" y="340" width="110" height="30" as="geometry"/>
                </mxCell>
                <mxCell id="113" style="edgeStyle=none;html=1;exitX=0;exitY=0.5;exitDx=0;exitDy=0;entryX=1;entryY=1;entryDx=0;entryDy=0;fontSize=15;" parent="1" source="85" target="17" edge="1">
                    <mxGeometry relative="1" as="geometry"/>
                </mxCell>
                <mxCell id="114" style="edgeStyle=none;html=1;exitX=1;exitY=0.5;exitDx=0;exitDy=0;entryX=0;entryY=0.5;entryDx=0;entryDy=0;fontSize=15;" parent="1" source="85" target="88" edge="1">
                    <mxGeometry relative="1" as="geometry"/>
                </mxCell>
                <mxCell id="85" value="home.html" style="rounded=0;whiteSpace=wrap;html=1;labelBackgroundColor=none;fontSize=15;" parent="1" vertex="1">
                    <mxGeometry x="538.5" y="397.5" width="90" height="30" as="geometry"/>
                </mxCell>
                <mxCell id="86" value="create.html" style="rounded=0;whiteSpace=wrap;html=1;labelBackgroundColor=none;fontSize=15;" parent="1" vertex="1">
                    <mxGeometry x="178.5" y="190" width="120" height="35" as="geometry"/>
                </mxCell>
                <mxCell id="116" style="edgeStyle=none;html=1;exitX=0;exitY=0.5;exitDx=0;exitDy=0;entryX=0.75;entryY=0;entryDx=0;entryDy=0;fontSize=15;" parent="1" source="87" target="17" edge="1">
                    <mxGeometry relative="1" as="geometry"/>
                </mxCell>
                <mxCell id="87" value="update.html" style="rounded=0;whiteSpace=wrap;html=1;labelBackgroundColor=none;fontSize=15;" parent="1" vertex="1">
                    <mxGeometry x="488.5" y="235" width="100" height="30" as="geometry"/>
                </mxCell>
                <mxCell id="88" value="job_listing.html (detail)" style="rounded=0;whiteSpace=wrap;html=1;labelBackgroundColor=none;fontSize=15;" parent="1" vertex="1">
                    <mxGeometry x="678.5" y="420" width="130" height="50" as="geometry"/>
                </mxCell>
                <mxCell id="103" style="edgeStyle=none;html=1;exitX=0.25;exitY=0;exitDx=0;exitDy=0;entryX=0.5;entryY=1;entryDx=0;entryDy=0;fontSize=15;" parent="1" source="99" target="100" edge="1">
                    <mxGeometry relative="1" as="geometry"/>
                </mxCell>
                <mxCell id="104" style="edgeStyle=none;html=1;exitX=0.75;exitY=0;exitDx=0;exitDy=0;entryX=0.5;entryY=1;entryDx=0;entryDy=0;fontSize=15;" parent="1" source="99" target="86" edge="1">
                    <mxGeometry relative="1" as="geometry"/>
                </mxCell>
                <mxCell id="136" style="edgeStyle=none;html=1;exitX=0.5;exitY=1;exitDx=0;exitDy=0;" edge="1" parent="1" source="99" target="17">
                    <mxGeometry relative="1" as="geometry"/>
                </mxCell>
                <mxCell id="99" value="register" style="rounded=1;whiteSpace=wrap;html=1;labelBackgroundColor=none;fontSize=15;" parent="1" vertex="1">
                    <mxGeometry x="158.5" y="267.5" width="70" height="30" as="geometry"/>
                </mxCell>
                <mxCell id="100" value="register.html" style="rounded=0;whiteSpace=wrap;html=1;labelBackgroundColor=none;fontSize=15;" parent="1" vertex="1">
                    <mxGeometry x="48.5" y="150" width="120" height="30" as="geometry"/>
                </mxCell>
                <mxCell id="117" style="edgeStyle=none;html=1;exitX=0;exitY=0.5;exitDx=0;exitDy=0;entryX=1;entryY=0;entryDx=0;entryDy=0;fontSize=15;" parent="1" source="101" target="17" edge="1">
                    <mxGeometry relative="1" as="geometry"/>
                </mxCell>
                <mxCell id="101" value="login.html" style="rounded=0;whiteSpace=wrap;html=1;labelBackgroundColor=none;fontSize=15;" parent="1" vertex="1">
                    <mxGeometry x="508.5" y="285" width="90" height="30" as="geometry"/>
                </mxCell>
                <mxCell id="115" style="edgeStyle=none;html=1;exitX=0.5;exitY=1;exitDx=0;exitDy=0;entryX=0.5;entryY=0;entryDx=0;entryDy=0;fontSize=15;" parent="1" source="111" target="17" edge="1">
                    <mxGeometry relative="1" as="geometry"/>
                </mxCell>
                <mxCell id="111" value="create_job.html" style="rounded=0;whiteSpace=wrap;html=1;labelBackgroundColor=none;fontSize=15;" parent="1" vertex="1">
                    <mxGeometry x="323.5" y="307.5" width="140" height="40" as="geometry"/>
                </mxCell>
                <mxCell id="126" style="edgeStyle=none;html=1;exitX=0.5;exitY=1;exitDx=0;exitDy=0;entryX=0.5;entryY=0;entryDx=0;entryDy=0;" edge="1" parent="1" source="125" target="31">
                    <mxGeometry relative="1" as="geometry"/>
                </mxCell>
                <mxCell id="125" value="javascript" style="rounded=1;whiteSpace=wrap;html=1;labelBackgroundColor=none;fontSize=15;" vertex="1" parent="1">
                    <mxGeometry x="36" y="297.5" width="75" height="30" as="geometry"/>
                </mxCell>
                <mxCell id="130" style="edgeStyle=none;html=1;exitX=0.5;exitY=0;exitDx=0;exitDy=0;entryX=0.5;entryY=1;entryDx=0;entryDy=0;" edge="1" parent="1" source="127" target="9">
                    <mxGeometry relative="1" as="geometry"/>
                </mxCell>
                <mxCell id="127" value="&lt;b&gt;Message&lt;br&gt;&lt;br&gt;&lt;/b&gt;&lt;span&gt;-direct message&lt;br&gt;-email&lt;br&gt;&lt;/span&gt;" style="rounded=0;whiteSpace=wrap;html=1;rotation=0;" vertex="1" parent="1">
                    <mxGeometry x="98.5" y="920" width="110" height="90" as="geometry"/>
                </mxCell>
                <mxCell id="132" style="edgeStyle=none;html=1;exitX=1;exitY=0.5;exitDx=0;exitDy=0;entryX=0.5;entryY=0;entryDx=0;entryDy=0;" edge="1" parent="1" source="131" target="111">
                    <mxGeometry relative="1" as="geometry"/>
                </mxCell>
                <mxCell id="131" value="&lt;span&gt;-Job Title&lt;/span&gt;&lt;br&gt;&lt;span&gt;-Job Description&lt;/span&gt;&lt;br&gt;&lt;span&gt;-Position Title&lt;/span&gt;&lt;br&gt;&lt;span&gt;-Skills /Proficiencies&lt;/span&gt;&lt;br&gt;&lt;span&gt;-State&lt;/span&gt;&lt;br&gt;&lt;span&gt;-City&lt;/span&gt;&lt;br&gt;&lt;span&gt;-shift&lt;/span&gt;&lt;br&gt;&lt;span&gt;-hours&lt;/span&gt;&lt;br&gt;&lt;span&gt;-remote&lt;/span&gt;&lt;br&gt;&lt;span&gt;-availability&lt;/span&gt;&lt;br&gt;&lt;span&gt;-created-date&lt;/span&gt;&lt;br&gt;&lt;span&gt;-user name&lt;/span&gt;" style="rounded=0;whiteSpace=wrap;html=1;direction=south;" vertex="1" parent="1">
                    <mxGeometry x="328.5" y="105" width="130" height="180" as="geometry"/>
                </mxCell>
            </root>
        </mxGraphModel>
    </diagram>
</mxfile>